<?xml version="1.0" encoding="UTF-8"?>
<svg xmlns="http://www.w3.org/2000/svg" xmlns:xlink="http://www.w3.org/1999/xlink" width="12px" height="12px" viewBox="0 0 12 12" version="1.1">
<g id="surface1">
<path style=" stroke:none;fill-rule:evenodd;fill:#9a9a9a;fill-opacity:1;" d="M 10.589844 0.9375 L 10.027344 0.9375 L 10.027344 0 L 9.089844 0 L 9.089844 0.9375 L 2.910156 0.9375 L 2.910156 0 L 1.964844 0 L 1.964844 0.9375 L 1.402344 0.9375 C 0.628906 0.9375 0 1.566406 0 2.339844 L 0 10.589844 C 0 11.367188 0.625 11.996094 1.402344 12 L 10.589844 12 C 10.964844 12 11.324219 11.851562 11.585938 11.585938 C 11.851562 11.324219 12 10.964844 12 10.589844 L 12 2.339844 C 11.996094 1.5625 11.367188 0.9375 10.589844 0.9375 Z M 1.402344 1.875 L 1.964844 1.875 L 1.964844 2.8125 L 2.910156 2.8125 L 2.910156 1.875 L 9.089844 1.875 L 9.089844 2.8125 L 10.027344 2.8125 L 10.027344 1.875 L 10.589844 1.875 C 10.847656 1.871094 11.058594 2.082031 11.0625 2.339844 L 11.0625 3.464844 L 0.9375 3.464844 L 0.9375 2.339844 C 0.9375 2.082031 1.144531 1.875 1.402344 1.875 Z M 10.589844 11.0625 L 1.402344 11.0625 C 1.144531 11.058594 0.933594 10.847656 0.9375 10.589844 L 0.9375 4.402344 L 11.0625 4.402344 L 11.0625 10.589844 C 11.0625 10.714844 11.011719 10.835938 10.925781 10.925781 C 10.835938 11.011719 10.714844 11.0625 10.589844 11.0625 Z M 1.777344 5.390625 L 2.714844 5.390625 L 2.714844 6.328125 L 1.777344 6.328125 Z M 3.652344 5.390625 L 4.589844 5.390625 L 4.589844 6.328125 L 3.652344 6.328125 Z M 5.527344 5.390625 L 6.464844 5.390625 L 6.464844 6.328125 L 5.527344 6.328125 Z M 7.402344 5.390625 L 8.339844 5.390625 L 8.339844 6.328125 L 7.402344 6.328125 Z M 9.277344 5.390625 L 10.214844 5.390625 L 10.214844 6.328125 L 9.277344 6.328125 Z M 1.777344 7.265625 L 2.714844 7.265625 L 2.714844 8.203125 L 1.777344 8.203125 Z M 3.652344 7.265625 L 4.589844 7.265625 L 4.589844 8.203125 L 3.652344 8.203125 Z M 5.527344 7.265625 L 6.464844 7.265625 L 6.464844 8.203125 L 5.527344 8.203125 Z M 7.402344 7.265625 L 8.339844 7.265625 L 8.339844 8.203125 L 7.402344 8.203125 Z M 1.777344 9.140625 L 2.714844 9.140625 L 2.714844 10.078125 L 1.777344 10.078125 Z M 3.652344 9.140625 L 4.589844 9.140625 L 4.589844 10.078125 L 3.652344 10.078125 Z M 5.527344 9.140625 L 6.464844 9.140625 L 6.464844 10.078125 L 5.527344 10.078125 Z M 7.402344 9.140625 L 8.339844 9.140625 L 8.339844 10.078125 L 7.402344 10.078125 Z M 9.277344 7.265625 L 10.214844 7.265625 L 10.214844 8.203125 L 9.277344 8.203125 Z M 9.277344 7.265625 "/>
</g>
</svg>
