<?xml version="1.0" encoding="UTF-8"?>
<svg xmlns="http://www.w3.org/2000/svg" xmlns:xlink="http://www.w3.org/1999/xlink" width="12px" height="12px" viewBox="0 0 12 12" version="1.1">
<g id="surface1">
<path style=" stroke:none;fill-rule:evenodd;fill:#222933;fill-opacity:1;" d="M 10.242188 7.753906 C 9.601562 7.113281 8.820312 6.625 7.960938 6.328125 C 9.214844 5.46875 9.761719 3.894531 9.3125 2.441406 C 8.863281 0.992188 7.519531 0 6 0 C 4.480469 0 3.136719 0.992188 2.6875 2.441406 C 2.238281 3.894531 2.785156 5.46875 4.039062 6.328125 C 1.617188 7.164062 -0.00390625 9.441406 0 12 L 0.9375 12 C 0.9375 9.203125 3.203125 6.9375 6 6.9375 C 8.796875 6.9375 11.0625 9.203125 11.0625 12 L 12 12 C 12.003906 10.40625 11.371094 8.878906 10.242188 7.753906 Z M 3.46875 3.464844 C 3.472656 2.066406 4.605469 0.9375 6.003906 0.9375 C 7.398438 0.9375 8.53125 2.074219 8.53125 3.46875 C 8.53125 4.867188 7.398438 6 6 6 C 5.328125 6 4.683594 5.734375 4.207031 5.257812 C 3.734375 4.78125 3.46875 4.136719 3.46875 3.464844 Z M 3.46875 3.464844 "/>
</g>
</svg>
