<?xml version="1.0" encoding="UTF-8"?>
<svg xmlns="http://www.w3.org/2000/svg" xmlns:xlink="http://www.w3.org/1999/xlink" width="17px" height="17px" viewBox="0 0 17 17" version="1.1">
<g id="surface1">
<path style=" stroke:none;fill-rule:nonzero;fill: #243f4d;fill-opacity:1;" d="M 8.101562 2.789062 L 8.46875 3.1875 L 8.867188 2.789062 C 9.980469 1.707031 11.523438 1.210938 13.035156 1.464844 C 15.324219 1.84375 17 3.824219 17 6.144531 L 17 6.339844 C 17 7.714844 16.429688 9.035156 15.417969 9.972656 L 9.417969 15.574219 C 9.171875 15.808594 8.84375 15.9375 8.5 15.9375 C 8.15625 15.9375 7.828125 15.808594 7.582031 15.574219 L 1.582031 9.972656 C 0.570312 9.035156 0 7.714844 0 6.339844 L 0 6.144531 C 0 3.824219 1.675781 1.84375 3.964844 1.464844 C 5.449219 1.210938 7.019531 1.707031 8.101562 2.789062 C 8.070312 2.789062 8.101562 2.789062 8.101562 2.789062 Z M 8.46875 5.441406 L 6.976562 3.886719 C 6.253906 3.195312 5.234375 2.867188 4.226562 3.035156 C 2.707031 3.289062 1.59375 4.605469 1.59375 6.144531 L 1.59375 6.339844 C 1.59375 7.273438 1.984375 8.171875 2.667969 8.808594 L 8.5 14.253906 L 14.332031 8.808594 C 15.019531 8.171875 15.40625 7.273438 15.40625 6.339844 L 15.40625 6.144531 C 15.40625 4.605469 14.289062 3.289062 12.773438 3.035156 C 11.765625 2.867188 10.746094 3.195312 10.023438 3.886719 Z M 8.46875 5.441406 "/>
</g>
</svg>
